<?xml version="1.0" encoding="UTF-8" standalone="no"?>
<svg
   id="Layer_1"
   data-name="Layer 1"
   viewBox="0 0 100 100"
   version="1.1"
   sodipodi:docname="plotly-icon.svg"
   inkscape:export-filename="plotly-icon-2.svg"
   inkscape:export-xdpi="96"
   inkscape:export-ydpi="96"
   width="100"
   height="100"
   inkscape:version="1.4 (e7c3feb1, 2024-10-09)"
   xmlns:inkscape="http://www.inkscape.org/namespaces/inkscape"
   xmlns:sodipodi="http://sodipodi.sourceforge.net/DTD/sodipodi-0.dtd"
   xmlns:xlink="http://www.w3.org/1999/xlink"
   xmlns="http://www.w3.org/2000/svg"
   xmlns:svg="http://www.w3.org/2000/svg">
  <sodipodi:namedview
     id="namedview23"
     pagecolor="#ffffff"
     bordercolor="#000000"
     borderopacity="0.25"
     inkscape:showpageshadow="2"
     inkscape:pageopacity="0.0"
     inkscape:pagecheckerboard="0"
     inkscape:deskcolor="#d1d1d1"
     inkscape:export-bgcolor="#ffffffab"
     inkscape:zoom="1.9670216"
     inkscape:cx="126.58732"
     inkscape:cy="28.215247"
     inkscape:window-width="1728"
     inkscape:window-height="998"
     inkscape:window-x="0"
     inkscape:window-y="38"
     inkscape:window-maximized="1"
     inkscape:current-layer="Layer_1" />
  <defs
     id="defs2">
    <style
       id="style1">
      .cls-1 {
        fill: url(#linear-gradient);
      }

      .cls-1, .cls-2, .cls-3 {
        stroke-width: 0px;
      }

      .cls-2 {
        fill: #8c99cd;
      }

      .cls-3 {
        fill: #282d33;
      }
    </style>
    <linearGradient
       id="linear-gradient"
       x1="44.869999"
       y1="40.43"
       x2="102.87"
       y2="40.43"
       gradientTransform="translate(2,-3)"
       gradientUnits="userSpaceOnUse">
      <stop
         offset="0"
         stop-color="#ff2c6d"
         id="stop1" />
      <stop
         offset="1"
         stop-color="#7fe4ff"
         id="stop2" />
    </linearGradient>
    <linearGradient
       inkscape:collect="always"
       xlink:href="#linear-gradient"
       id="linearGradient23"
       gradientUnits="userSpaceOnUse"
       gradientTransform="translate(2,-3)"
       x1="44.869999"
       y1="40.43"
       x2="102.87"
       y2="40.43" />
    <linearGradient
       inkscape:collect="always"
       xlink:href="#linear-gradient"
       id="linearGradient24"
       gradientUnits="userSpaceOnUse"
       gradientTransform="translate(2,-3)"
       x1="44.869999"
       y1="40.43"
       x2="102.87"
       y2="40.43" />
    <linearGradient
       inkscape:collect="always"
       xlink:href="#linear-gradient"
       id="linearGradient25"
       gradientUnits="userSpaceOnUse"
       gradientTransform="translate(2,-3)"
       x1="44.869999"
       y1="40.43"
       x2="102.87"
       y2="40.43" />
    <linearGradient
       inkscape:collect="always"
       xlink:href="#linear-gradient"
       id="linearGradient26"
       gradientUnits="userSpaceOnUse"
       gradientTransform="translate(2,-3)"
       x1="44.869999"
       y1="40.43"
       x2="102.87"
       y2="40.43" />
    <linearGradient
       inkscape:collect="always"
       xlink:href="#linear-gradient"
       id="linearGradient27"
       gradientUnits="userSpaceOnUse"
       gradientTransform="translate(2,-3)"
       x1="44.869999"
       y1="40.43"
       x2="102.87"
       y2="40.43" />
    <linearGradient
       inkscape:collect="always"
       xlink:href="#linear-gradient"
       id="linearGradient28"
       gradientUnits="userSpaceOnUse"
       gradientTransform="translate(2,-3)"
       x1="44.869999"
       y1="40.43"
       x2="102.87"
       y2="40.43" />
  </defs>
  <g
     id="g28"
     transform="matrix(1.7241378,0,0,1.7244352,-80.810336,-43.110879)">
    <g
       id="g14">
      <g
         id="g7">
        <circle
           class="cls-2"
           cx="84.160004"
           cy="45.709999"
           r="4.1399999"
           id="circle2" />
        <circle
           class="cls-2"
           cx="100.73"
           cy="29.139999"
           r="4.1399999"
           id="circle3" />
        <circle
           class="cls-2"
           cx="84.160004"
           cy="29.139999"
           r="4.1399999"
           id="circle4" />
        <circle
           class="cls-2"
           cx="67.589996"
           cy="29.139999"
           r="4.1399999"
           id="circle5" />
        <circle
           class="cls-2"
           cx="51.009998"
           cy="29.139999"
           r="4.1399999"
           id="circle6" />
        <circle
           class="cls-2"
           cx="51.009998"
           cy="45.709999"
           r="4.1399999"
           id="circle7" />
      </g>
      <g
         id="g13">
        <circle
           class="cls-1"
           cx="84.160004"
           cy="45.709999"
           r="4.1399999"
           id="circle8"
           style="fill:url(#linearGradient23)" />
        <circle
           class="cls-1"
           cx="100.73"
           cy="29.139999"
           r="4.1399999"
           id="circle9"
           style="fill:url(#linearGradient24)" />
        <circle
           class="cls-1"
           cx="84.160004"
           cy="29.139999"
           r="4.1399999"
           id="circle10"
           style="fill:url(#linearGradient25)" />
        <circle
           class="cls-1"
           cx="67.589996"
           cy="29.139999"
           r="4.1399999"
           id="circle11"
           style="fill:url(#linearGradient26)" />
        <circle
           class="cls-1"
           cx="51.009998"
           cy="29.139999"
           r="4.1399999"
           id="circle12"
           style="fill:url(#linearGradient27)" />
        <circle
           class="cls-1"
           cx="51.009998"
           cy="45.709999"
           r="4.1399999"
           id="circle13"
           style="fill:url(#linearGradient28)" />
      </g>
    </g>
    <g
       id="g22">
      <path
         class="cls-3"
         d="m 51.01,58.14 c -2.29,0 -4.14,1.85 -4.14,4.14 v 16.57 c 0,2.29 1.85,4.14 4.14,4.14 2.29,0 4.14,-1.85 4.14,-4.14 V 62.28 c 0,-2.29 -1.85,-4.14 -4.14,-4.14 z"
         id="path19" />
      <path
         class="cls-3"
         d="m 84.16,58.14 c -2.29,0 -4.14,1.85 -4.14,4.14 v 16.57 c 0,2.29 1.85,4.14 4.14,4.14 2.29,0 4.14,-1.85 4.14,-4.14 V 62.28 c 0,-2.29 -1.85,-4.14 -4.14,-4.14 z"
         id="path20" />
      <path
         class="cls-3"
         d="m 67.59,41.57 c -2.29,0 -4.14,1.85 -4.14,4.14 v 33.14 c 0,2.29 1.85,4.14 4.14,4.14 2.29,0 4.14,-1.85 4.14,-4.14 V 45.71 c 0,-2.29 -1.85,-4.14 -4.14,-4.14 z"
         id="path21" />
      <path
         class="cls-3"
         d="m 100.73,41.57 c -2.29,0 -4.14,1.85 -4.14,4.14 v 33.14 c 0,2.29 1.85,4.14 4.14,4.14 2.29,0 4.14,-1.85 4.14,-4.14 V 45.71 c 0,-2.29 -1.85,-4.14 -4.14,-4.14 z"
         id="path22" />
    </g>
  </g>
</svg>
